# xmcd
#
# Track frame offsets:
#	183
#	23030
#	42953
#	58803
#	85183
#	107803
#	127263
#	147273
#	182110
#	215603
#	231555
#	279355
#	295510
#
# Disc length: 4204 seconds
#
# Revision: 0
# Processed by: cddbd v1.4PL0 Copyright (c) Steve Scherf et al.
# Submitted via: EasyCDDAExtractor 4.5.0.2
#
DISCID=c6106a0d
DTITLE=George Harrison and Eric Clapton - Live Tokio 1991
DYEAR=1991
DGENRE=blues
TTITLE0=Got my mind set on you
TTITLE1=Cloud nine
TTITLE2=Here comes the sun
TTITLE3=My sweet lord
TTITLE4=All those years ago
TTITLE5=Cheer down
TTITLE6=Devil's radio
TTITLE7=Isn't it a pity
TTITLE8=While my guitar gently weeps
TTITLE9=Roll over Beethoven
TTITLE10=Roll over Beethoven intermezzo
TTITLE11=Fish on the sand
TTITLE12=Loves comes to everyone
EXTD=
EXTT0=
EXTT1=
EXTT2=
EXTT3=
EXTT4=
EXTT5=
EXTT6=
EXTT7=
EXTT8=
EXTT9=
EXTT10=
EXTT11=
EXTT12=
PLAYORDER=
